<?xml version="1.0" encoding="UTF-8"?>
<svg id="a" data-name="Layer 1" xmlns="http://www.w3.org/2000/svg" viewBox="0 0 596.8 596.8">
  <g fill="#186764">
    <path d="m366.9,590.5l80-80,29.4,29.4c-33.4,24.6-70.7,41.5-109.4,50.5Z"/>
    <path d="m510.5,446.9l80-80c-9.1,38.8-25.9,76.1-50.5,109.4l-29.4-29.4Z"/>
    <path d="m214.1,586.3l372.3-372.3c5.1,17.4,8.6,35.3,10.4,53.2l-329.5,329.5c-18-1.9-35.8-5.3-53.2-10.4Z"/>
    <path d="m243.2,306.9l-179,179c-9.7-12.1-18.3-24.7-25.9-37.8l173.1-173.1,31.8,31.8Z"/>
    <path d="m229.9,6.3L6.3,229.9c12.3-52.6,39-102.6,80-143.6S177.2,18.6,229.9,6.3Z"/>
    <path d="m382.7,10.4L10.4,382.7c-5.1-17.4-8.6-35.3-10.4-53.2L329.5,0c18,1.9,35.8,5.3,53.2,10.4Z"/>
    <path d="m110.9,532.6L532.6,110.9c9.7,12.1,18.3,24.7,25.9,37.8l-409.8,409.8c-13.1-7.5-25.7-16.2-37.8-25.9Z"/>
    <path d="m275.1,211.4L448.1,38.3c13.1,7.5,25.7,16.2,37.8,25.9l-179,179-31.8-31.8Z"/>
    <path d="m229.9,6.3L6.3,229.9c12.3-52.6,39-102.6,80-143.6S177.2,18.6,229.9,6.3Z"/>
    <path d="m382.7,10.4L10.4,382.7c-5.1-17.4-8.6-35.3-10.4-53.2L329.5,0c18,1.9,35.8,5.3,53.2,10.4Z"/>
    <path d="m532.6,110.9c9.7,12.1,18.3,24.7,25.9,37.8l-409.8,409.8c-13.1-7.5-25.7-16.2-37.8-25.9L532.6,110.9Z"/>
    <path d="m586.3,214.1c5.1,17.4,8.6,35.3,10.4,53.2l-329.5,329.5c-18-1.9-35.8-5.3-53.2-10.4l372.3-372.3Z"/>
    <path d="m211.4,275.1l31.8,31.8-179,179c-9.7-12.1-18.3-24.7-25.9-37.8l173.1-173.1Z"/>
    <path d="m485.9,64.2l-179,179-31.8-31.8L448.1,38.3c13.1,7.5,25.7,16.2,37.8,25.9Z"/>
    <path d="m446.9,510.5l29.4,29.4c-33.4,24.6-70.7,41.5-109.4,50.5l80-80Z"/>
    <path d="m590.5,366.9c-9.1,38.8-25.9,76.1-50.5,109.4l-29.4-29.4,80-80Z"/>
  </g>
</svg>
