<?xml version="1.0" encoding="UTF-8"?>
<svg id="a" data-name="Layer 1" xmlns="http://www.w3.org/2000/svg" viewBox="0 0 599.991 599.991">
  <defs>
    <style>
      .b {
        fill: #a0b9b9;
      }

      .c {
        fill: #cfdcdc;
      }

      .d {
        fill: #135250;
      }

      .e {
        fill: #427473;
      }

      .f {
        fill: #0f4140;
      }

      .g {
        fill: #719796;
      }
    </style>
  </defs>
  <path class="c" d="m311.088.205L.202,311.007c-2.945-80.413,26.291-161.79,87.69-223.172C149.291,26.452,230.676-2.761,311.088.205Z"/>
  <path class="b" d="m426.18,27.734L27.7,426.107C11.767,391.697,2.714,354.891.526,317.753L317.834.531c37.137,2.197,73.941,11.26,108.346,27.203Z"/>
  <path class="g" d="m228.941,232.457l67.166,67.184-210.378,210.322c-23.275-23.734-41.804-50.373-55.596-78.751l198.809-198.755Z"/>
  <path class="g" d="m510.021,85.785l-210.378,210.322-67.166-67.184L431.285,30.167c28.374,13.799,55.009,32.336,78.736,55.617Z"/>
  <path class="d" d="m572.291,173.884c15.934,34.41,24.987,71.216,27.174,108.354l-317.307,317.222c-37.137-2.197-73.941-11.26-108.346-27.203l398.48-398.373Z"/>
  <path class="e" d="m513.917,89.667c23.522,23.91,42.222,50.79,56.098,79.423l-400.998,400.89c-28.629-13.884-55.503-32.591-79.408-56.12L513.917,89.667Z"/>
  <path class="f" d="m442.578,446.153l67.739,67.757c-61.18,60.188-141.78,88.815-221.414,85.877l153.675-153.634Z"/>
  <path class="f" d="m599.789,288.984c2.917,79.635-25.732,160.227-85.936,221.391l-67.739-67.757,153.675-153.634Z"/>
</svg>